# xmcd CD database file
#
# Track frame offsets:
#	150
#	14210
#	31101
#	57574
#	79808
#	98519
#	115038
#	130237
#	148002
#	173882
#	194570
#	214047
#	232848
#	251572
#	264350
#	275037
#	300062
#	313349
#
# Disc length: 4473 seconds
#
# Revision: 0
# Processed by: cddbd v1.5.2PL0 Copyright (c) Steve Scherf et al.
# Submitted via: CDex 1.51
#
DISCID=fb117712
DTITLE=New Voices - New Voices
DYEAR=2008
DGENRE=Jazz
TTITLE0=Stacey Kent - This Can't Be Love
TTITLE1=Terez Montcalm - L.O.V.E.
TTITLE2=Roberta Gambarini - Smoke Gets In Your Eyes/All The Things You Are
TTITLE3=Cristina Zavalloni - Trilha dos caranguejos
TTITLE4=Jamie Cullum - You and The Night and The Music
TTITLE5=Mina Agossi - Aloe
TTITLE6=Anne Ducros - Easy to Love
TTITLE7=Susi Hyldgaard - Baby, It's Cold Outside
TTITLE8=Ada Montellanico - L'alba di un incontro
TTITLE9=Nils Landgren - Speak Low
TTITLE10=Stacey Kent - Dream Dancing
TTITLE11=Sara Lazarus - Takong A Chance On Love
TTITLE12=Carla Marcotulli - I'm Through With Love
TTITLE13=Silvana Deluigi - Sobre la tierra (Out In The Fields)
TTITLE14=Rigmor Gustafsson - Always Something There To Remind Me
TTITLE15=Maria Joao - Fado
TTITLE16=Solveig Slettehjell - I Do
TTITLE17=Olivia Sellerio - Me gustan los estudiantes
EXTD=YEAR: 2008
EXTT0=
EXTT1=
EXTT2=
EXTT3=
EXTT4=
EXTT5=
EXTT6=
EXTT7=
EXTT8=
EXTT9=
EXTT10=
EXTT11=
EXTT12=
EXTT13=
EXTT14=
EXTT15=
EXTT16=
EXTT17=
PLAYORDER=
